<svg height="512" width="512" xmlns="http://www.w3.org/2000/svg"><path d="m256 0c-141.3850098 0-256 114.6149902-256 256s114.6149902 256 256 256 256-114.6149902 256-256-114.6149902-256-256-256zm3.664856 435.0324097c-239.5512696.0019531-239.5541993-354.0620118-.0029297-354.0639649 13.3584595-.6360474 14.3096313 19.3414917.9511719 19.9775391-212.8156128-.0020142-212.8185425 314.105896-.0029297 314.1079102 13.4067993.6343383 12.4614868 20.6128539-.9453125 19.9785156zm.0048828-42.2714844c-187.5577393.0020142-187.5606689-269.5184937-.0029297-269.5205078 13.2700806-.6253662 14.2114868 19.3521729.9414062 19.9775391-159.4755859-.0020752-159.4785156 229.562439-.0029297 229.5644531 13.8737793.6496582 12.9382325 20.6281738-.9355468 19.9785156zm.9267578-63.6728516c13.2194824.6074219 12.3015137 20.5859375-.9179688 19.9785156-126.90271.0020142-126.9056396-182.1307983-.0029297-182.1328125 13.1015625-.605835 14.0253906 19.3726807.9238281 19.9785156-100.7973022-.0020751-100.8002319 142.1737061-.0029296 142.1757813z"/></svg>