<svg height="512" width="496" xmlns="http://www.w3.org/2000/svg"><path d="m445.5051575 399.4073181c7.1492004 6.1278687 12.0752258 15.2142944 14.4948425 19.0301819l29.8314514-30.6299133c12.1444092-11.1323853 1.2152405-29.1346436 1.2152405-29.1346436l-177.105957-227.7076874c-4.0481567-31.3730545 3.3917542-31.7163086 13.1564331-49.5896683 7.1879578-13.1569366 5.1987305-22.3147202-2.1319885-26.1937332-17.476532 35.889534-82.5415497 171.2519379-82.5415497 171.2519379l-178.2716904 178.8195343-13.3400841-6.0990295c70.8370361-70.0352478 156.1104736-154.4510193 178.6251373-176.3509979-13.5043335 1.3425293-18.0847473 4.2645264-17.4567871-6.2501831l91.3898773-161.9916687c-6.7160339-.6151009-11.884491-9.7902412-15.7991943-20.5847397l-87.6040802 149.548111-164.6966934 176.2234115c-5.0570183 5.4073486-13.1878834-2.1967468-8.1308632-7.6040955l163.9030762-175.2741394 92.0941772-157.3572083c-3.2102356-18.6356525-7.8701782-25.8832912-19.7974854-13.0277157l-159.90139 184.1902066-101.2034104 162.9374848c-6.8911467 28.632782 1.1587987 35.5525208 38.2409782 61.0465393 6.8676758 4.7214661 16.4529076 7.101593 27.4653244 3.7518311l4.9815979 61.9144897 13.905777 13.9058533 291.2494958 17.7685241s22.4038696-18.5410767 39.3998413-36.3096313c16.9960022-17.7685242 9.2705383-19.3136292 3.8627014-25.493988-5.4078064-6.1803894-5.4078064-26.266571-5.4078064-37.8547363-.3071289-9.5916444 18.5678711-24.2166444 29.5730286-12.9343263zm-25.8574524-27.1779175c.6452942 4.0871277.4624023 8.9073792-.1355896 13.7354126l-241.18396-3.6777649c-63.8183441 27.1530151-36.1286469 15.6047974-94.8557129 27.8630676 16.4230728-10.9958191 27.5554428-39.3327637 73.2656708-81.8381958 48.6216888-44.3719788 110.7248383-99.7557831 119.4200287-128.8657227 100.8660583 136.6246339 140.3353882 153.1545411 143.489563 172.7832032z"/></svg>