<svg height="512" width="397" xmlns="http://www.w3.org/2000/svg"><path clip-rule="evenodd" d="m311.877594 473.262207v-44.159729h36.9874573c27.9794311 0 48.1349487-22.66156 48.1349487-47.1362304v-148.4339447c0-24.5007935-20.5754089-47.2739105-48.0574646-47.2739105h-37.0649414v-17.2258759c53.0607605-10.1676636 42.2963257-85.2197037-11.0424194-81.0642471 14.8663025-30.8087654-20.3473511-67.2504196-55.6758575-47.6563301-12.2150726-52.0367813-86.8842621-55.8038483-101.1082153 1.0762138-18.0656738-9.3072968-41.1047363-3.585186-53.3566513 12.2898445-35.2891502-24.9201164-70.3625946 14.5519676-60.9547806 37.39851-40.9395523 11.2818527-39.0149994 68.0561066 2.0938263 79.3362579v307.6092529c.0000018 45.4953156 280.0440978 46.6659699 280.0440978-4.7598114zm-243.0003738-22.5446472c-2.8365936-1.6346741-4.5857468-4.6613464-4.5857468-7.937561v-264.6165161l-20.3255424-5.1806488-.0000916 306.6692505c57.1713295 28.4996948 216.7803802 26.9910583 255.7849579-4.987854l.0000305-42.4688416c0-8.2800598 6.6022339-15.2179565 15.5355225-15.2179565h33.6473083c20.0153198 0 35.1513367-16.9389038 35.1513367-35.012207v-148.4329224c0-18.9237671-15.3988647-35.1468964-35.1424561-35.1468964h-33.9710083c-8.3926086 0-15.2209473-6.8283539-15.2209473-15.2214355v-10.80542c-6.3342285 2.3272247-12.907959 4.4682465-19.6704102 6.399292l-.0250549 260.3750305c0 3.0999756-1.5751343 5.9915771-4.1828308 7.6720276-54.0452156 31.2599488-154.8213615 27.4996338-206.9950675 3.9126587zm241.0078201-293.6446991c45.5821228-10.710434 21.7134705-72.2359314-18.2645264-53.5693359-4.8167419 3.0097351-11.5689697-2.6660461-8.087616-8.5470276 8.1418457-14.0737839 12.6542053-24.2266006 4.193512-36.1655655-8.6100464-12.1497307-27.0741882-18.0494614-42.7180786-3.0749893-4.4994659 4.4173546-10.5362244 1.2791405-10.7019348-3.9693069-1.7624359-52.6035233-78.0496216-52.1804924-79.1704559 0-.024353 4.8660278-5.4464569 8.6136589-10.9269257 4.1084595-16.5305481-13.2804756-39.2715302-5.3911438-46.3452377 9.2329254-1.8016968 3.5939713-6.2747269 4.3665771-9.3572769 1.9353104-31.2821999-26.3718682-57.1947442 12.3102797-44.5796738 23.9080962 4.1275024 3.475769 2.2071457 10.3816605-3.7467575 10.7108078-34.4300346 3.4751816-44.3024216 53.6661911 10.0480194 60.6425705 15.3586044 4.1410217 78.2877655 19.220932 144.3487549 17.0359497 8.1993561.3721924 2.926178 7.2965698 16.8256226 18.1576843 8.6846466 5.0116577 12.3967285 11.7554626 12.5888824 19.6910858-.0644684 18.8045197 31.9232788 20.1302032 28.9457245-1.4191589-.6868896-10.0106049 1.4418488-19.9753113 6.1621704-28.8317413 5.6305542-9.607605 1.0706482-14.59758 8.2534485-17.2958832 30.2154235-7.5569916 25.1604614-9.3951569 42.5323486-12.549881zm-196.7781296 268.6563873v-219.3677368c0-13.4466095-20.2116776-13.4466095-20.2116776 0v219.3677368c.0000001 13.5808716 20.2116776 13.5808716 20.2116776 0zm233.3170395-34.5483398h-29.1628418c-9.6990967 0-17.5105286-8.0637512-17.5105286-17.5105286v-133.2125244c0-8.7869415 7.8114319-17.5110168 17.5105286-17.5110168h29.1628418c10.210022 0 17.5115356 9.0061035 17.5115356 17.5110168v133.2125244c0 10.2928467-9.2756652 17.5105286-17.5115356 17.5105286zm5.3845215-17.5105286v-133.2125244c0-2.9686127-2.4581604-5.3840179-5.3845215-5.3840179h-29.1628418c-2.852417.0342865-5.2720337 2.1022034-5.3835144 5.3840179v133.2125244c.032074 2.7254944 2.1262207 5.3835144 5.3835144 5.3835144h29.1628418c2.8774414 0 5.3807373-2.3423767 5.3845215-5.3835144z" fill-rule="evenodd"/></svg>