<svg viewBox="0 0 32 32" xmlns="http://www.w3.org/2000/svg"><path d="m2 22.488 13.988 5.512v-14.687l-13.988-4.726z" fill="#b79c00"/><path d="m15.988 28 13.989-5.512v-13.901l-13.989 4.726z" fill="#ccae00"/><path d="m2.023 8.587 13.989 4.726 13.988-4.726-13.988-4.587z" fill="#f3d400"/><g fill="#fff"><path d="m24.776 10.352-13.987-4.638-2.507.821 14.006 4.654v3.675s.439-.51.595-.464c.405.121.971.359 1.187.155a2.8 2.8 0 0 1 .717-.479z"/><path d="m12.22 16.18-.56.2a3.3 3.3 0 0 0 -.639-.788l-.358-1.09-.593.535a3.639 3.639 0 0 0 -1.208-.469l-.532-.835-.52.64a2.558 2.558 0 0 0 -1.1.022l-.5-.688-.294.872a1.544 1.544 0 0 0 -.506.481l-.433-.36.247 1.679.019.063.537 2.5a4.445 4.445 0 0 0 2.55 2.748 2.268 2.268 0 0 0 2.849-1.169l.687-2.482.026-.06zm-1.646 3.27-.806.111-1.438-1.555-1.357.766-.7-.507-.49-1.1a1.984 1.984 0 0 1 2.544-1.31 3.879 3.879 0 0 1 2.842 2.682z"/></g></svg>